<svg width="37" height="40" viewBox="0 0 37 40" fill="none" xmlns="http://www.w3.org/2000/svg">
<path d="M16.3477 31C16.6957 31.3984 17.3074 31.6641 18.0035 31.6641C18.6996 31.6641 19.3113 31.3984 19.6699 31L31.2926 17.7031C32.8535 15.9141 33.7605 13.9453 33.7605 11.6641C33.75 5.07031 26.7574 0 18.0035 0C9.24961 0 2.25703 5.07031 2.25703 11.6641C2.25703 13.9453 3.16406 15.9141 4.725 17.7031L16.3477 31ZM18.0035 5C22.9711 5 27 7.98438 27 11.6641C27 15.3438 22.9711 18.3281 18.0035 18.3281C13.0359 18.3281 9.00703 15.3438 9.00703 11.6641C9.00703 7.98438 13.0359 5 18.0035 5ZM29.5418 25.2734L18.0035 36.6641L6.46523 25.2734C2.5207 26.8047 0 29.0937 0 31.6641C0 36.2656 8.05781 40 18.0035 40C27.9492 40 36.007 36.2656 36.007 31.6641C36.007 29.0937 33.4863 26.8047 29.5418 25.2734Z" fill="#19AA39" fill-opacity="0.8"/>
</svg>
