<svg width="7" height="7" viewBox="0 0 7 7" fill="none" xmlns="http://www.w3.org/2000/svg">
<path d="M5.86772 1.96478C5.33981 1.36919 4.57163 0.992432 3.71208 0.992432C2.11707 0.992432 0.824371 2.28513 0.824371 3.88014H1.5463C1.5463 2.68332 2.51526 1.71436 3.71208 1.71436C4.37197 1.71436 4.95741 2.01328 5.35334 2.47915L4.67428 3.15822H6.5998V1.2327L5.86772 1.96478ZM3.71208 6.04593C3.0522 6.04593 2.46676 5.747 2.07083 5.28114L2.74989 4.60207H0.824371V6.52759L1.55645 5.79551C2.08436 6.3911 2.85367 6.76786 3.71208 6.76786C5.30709 6.76786 6.5998 5.47515 6.5998 3.88014H5.87787C5.87787 5.07697 4.90891 6.04593 3.71208 6.04593Z" fill="#1E1B1B"/>
</svg>
