<svg width="16" height="16" viewBox="0 0 16 16" fill="none" xmlns="http://www.w3.org/2000/svg">
<g clip-path="url(#clip0_238_18)">
<path d="M12.5166 5.84979C12.8225 6.00513 13.0979 6.19577 13.3427 6.42172C13.5875 6.64767 13.7993 6.90187 13.9782 7.18431C14.1571 7.46675 14.2912 7.76801 14.3807 8.08811C14.4701 8.40821 14.5172 8.74242 14.5219 9.09077H13.6181C13.6181 8.71889 13.5475 8.36819 13.4063 8.03868C13.265 7.70917 13.0697 7.42203 12.8202 7.17725C12.5707 6.93247 12.2836 6.73947 11.9588 6.59825C11.634 6.45703 11.2833 6.38407 10.9067 6.37936C10.5348 6.37936 10.1841 6.44997 9.85459 6.59119C9.52508 6.73241 9.23794 6.92776 8.99316 7.17725C8.74838 7.42673 8.55538 7.71388 8.41416 8.03868C8.27294 8.36349 8.19998 8.71418 8.19527 9.09077C8.19527 9.51913 8.09877 9.92631 7.90577 10.3123C7.71277 10.6983 7.4421 11.0184 7.09376 11.2726C7.39973 11.4279 7.67511 11.6186 7.91989 11.8445C8.16467 12.0705 8.3765 12.3247 8.55538 12.6071C8.73426 12.8896 8.86841 13.1908 8.95785 13.5109C9.04729 13.831 9.09436 14.1652 9.09907 14.5136H8.19527C8.19527 14.1417 8.12466 13.791 7.98344 13.4615C7.84222 13.132 7.64687 12.8448 7.39738 12.6001C7.14789 12.3553 6.86075 12.1623 6.53594 12.0211C6.21114 11.8798 5.86045 11.8069 5.48386 11.8022C5.11199 11.8022 4.76129 11.8728 4.43178 12.014C4.10227 12.1552 3.81512 12.3506 3.57034 12.6001C3.32556 12.8495 3.13256 13.1367 2.99134 13.4615C2.85013 13.7863 2.77716 14.137 2.77245 14.5136H1.86865C1.86865 14.1699 1.91573 13.8381 2.00987 13.518C2.10402 13.1979 2.23818 12.8966 2.41235 12.6142C2.58652 12.3317 2.79599 12.0776 3.04077 11.8516C3.28555 11.6256 3.56328 11.4326 3.87396 11.2726C3.53033 11.0184 3.26201 10.6983 3.06902 10.3123C2.87602 9.92631 2.77716 9.51913 2.77245 9.09077C2.77245 8.71889 2.84306 8.36819 2.98428 8.03868C3.1255 7.70917 3.32086 7.42203 3.57034 7.17725C3.81983 6.93247 4.10698 6.73947 4.43178 6.59825C4.75658 6.45703 5.10728 6.38407 5.48386 6.37936C5.91223 6.37936 6.31941 6.47586 6.70541 6.66886C7.09141 6.86186 7.4115 7.13253 7.6657 7.48087C7.84458 7.12782 8.07288 6.81243 8.35061 6.5347C8.62834 6.25697 8.94373 6.02866 9.29678 5.84979C8.95315 5.59559 8.68483 5.2755 8.49183 4.8895C8.29883 4.5035 8.19998 4.09632 8.19527 3.66795C8.19527 3.29607 8.26588 2.94538 8.4071 2.61587C8.54832 2.28636 8.74367 1.99921 8.99316 1.75443C9.24264 1.50965 9.52979 1.31665 9.85459 1.17543C10.1794 1.03421 10.5301 0.96125 10.9067 0.956543C11.2786 0.956543 11.6292 1.02715 11.9588 1.16837C12.2883 1.30959 12.5754 1.50494 12.8202 1.75443C13.065 2.00392 13.258 2.29106 13.3992 2.61587C13.5404 2.94067 13.6134 3.29137 13.6181 3.66795C13.6181 4.09632 13.5216 4.5035 13.3286 4.8895C13.1356 5.2755 12.8649 5.59559 12.5166 5.84979ZM5.48386 10.8984C5.72864 10.8984 5.96165 10.8513 6.1829 10.7572C6.40414 10.663 6.59479 10.5336 6.75483 10.3688C6.91488 10.204 7.04433 10.0134 7.14319 9.79686C7.24204 9.58033 7.29147 9.34496 7.29147 9.09077C7.29147 8.84599 7.24439 8.61297 7.15025 8.39173C7.0561 8.17049 6.92665 7.97984 6.7619 7.81979C6.59714 7.65974 6.40414 7.53029 6.1829 7.43144C5.96165 7.33259 5.72864 7.28316 5.48386 7.28316C5.23438 7.28316 5.00136 7.33023 4.78483 7.42438C4.56829 7.51853 4.37765 7.64798 4.21289 7.81273C4.04813 7.97749 3.91868 8.17049 3.82454 8.39173C3.73039 8.61297 3.68096 8.84599 3.67626 9.09077C3.67626 9.34025 3.72333 9.57326 3.81748 9.7898C3.91162 10.0063 4.04107 10.197 4.20583 10.3617C4.37058 10.5265 4.56123 10.6559 4.77777 10.7501C4.9943 10.8442 5.22967 10.8937 5.48386 10.8984ZM9.09907 3.66795C9.09907 3.91744 9.14614 4.15045 9.24029 4.36699C9.33444 4.58352 9.46389 4.77417 9.62864 4.93892C9.7934 5.10368 9.98405 5.23313 10.2006 5.32728C10.4171 5.42142 10.6525 5.47085 10.9067 5.47556C11.1515 5.47556 11.3845 5.42848 11.6057 5.33434C11.827 5.24019 12.0176 5.11074 12.1776 4.94598C12.3377 4.78123 12.4671 4.59058 12.566 4.37405C12.6649 4.15751 12.7143 3.92214 12.7143 3.66795C12.7143 3.42317 12.6672 3.19016 12.5731 2.96892C12.4789 2.74767 12.3495 2.55703 12.1847 2.39698C12.02 2.23693 11.827 2.10748 11.6057 2.00863C11.3845 1.90977 11.1515 1.86035 10.9067 1.86035C10.6572 1.86035 10.4242 1.90742 10.2076 2.00156C9.99111 2.09571 9.80046 2.22516 9.6357 2.38992C9.47095 2.55467 9.3415 2.74767 9.24735 2.96892C9.15321 3.19016 9.10378 3.42317 9.09907 3.66795Z" fill="black" fill-opacity="0.73"/>
</g>
<defs>
<clipPath id="clip0_238_18">
<rect width="14.4608" height="14.4608" fill="white" transform="translate(0.964844 0.956787)"/>
</clipPath>
</defs>
</svg>
