<svg width="36" height="35" viewBox="0 0 36 35" fill="none" xmlns="http://www.w3.org/2000/svg">
<path d="M17.3285 2.40259C18.0828 4.7767 17.0052 7.04978 14.8499 7.79064C15.1463 8.67293 16.2643 9.55523 17.3689 9.84484C18.1905 8.65273 18.9583 7.32592 18.7091 6.119C19.551 7.17101 19.9551 8.88172 19.1132 9.78422C20.1437 9.47441 21.1472 8.74029 21.3156 7.79064C21.6995 5.58962 18.8708 3.4802 17.3285 2.40259ZM6.98608 7.18448L14.2438 14.9365V13.1585L9.78518 8.3968H13.7723V7.18448H6.98608ZM22.3932 7.18448V8.3968H26.3804L21.9218 13.1585V15.9401H24.3464V14.7278H22.1171L29.1822 7.18448H22.3932ZM16.5337 11.4949V12.5725H19.6318V11.4949H16.5337ZM15.4561 13.7849V15.8054H20.7095V13.7849H15.4561ZM25.5587 13.7849V16.883H26.9731V13.7849H25.5587ZM13.7723 17.0177C13.806 17.0177 13.4154 17.1322 13.0045 17.4353C12.5937 17.7383 12.1155 18.1896 11.671 18.6947C10.9773 19.4827 10.4048 20.4391 10.1758 21.1934H22.9994V31.0266H10.0681V33.0471H26.0975V21.7996C26.0975 21.025 25.3903 19.7117 24.4946 18.6947C24.0501 18.1896 23.5719 17.7383 23.161 17.4353C22.7502 17.1322 22.3595 17.0177 22.3932 17.0177H13.7723ZM10.0681 22.4057V29.8143H21.7871V22.4057H10.0681Z" fill="#19AA39"/>
</svg>
