<svg width="36" height="35" viewBox="0 0 36 35" fill="none" xmlns="http://www.w3.org/2000/svg">
<path d="M26.5584 14.6156C26.1773 14.6156 25.8119 14.4642 25.5424 14.1947C25.273 13.9253 25.1216 13.5598 25.1216 13.1787C25.1216 12.7977 25.273 12.4322 25.5424 12.1628C25.8119 11.8933 26.1773 11.7419 26.5584 11.7419C26.9395 11.7419 27.3049 11.8933 27.5744 12.1628C27.8438 12.4322 27.9952 12.7977 27.9952 13.1787C27.9952 13.5598 27.8438 13.9253 27.5744 14.1947C27.3049 14.4642 26.9395 14.6156 26.5584 14.6156ZM17.9375 14.6156H9.31662V7.43149H17.9375M29.1016 10.6356L29.1159 10.6212L23.771 5.27627L22.2479 6.79929L25.2796 9.83097C23.929 10.3051 22.9664 11.6414 22.9664 13.1787C22.9664 13.6505 23.0593 14.1176 23.2398 14.5534C23.4203 14.9892 23.6849 15.3851 24.0184 15.7187C24.6921 16.3923 25.6057 16.7708 26.5584 16.7708C27.0756 16.7708 27.5498 16.6558 27.9952 16.4691V26.8285C27.9952 27.2095 27.8438 27.575 27.5744 27.8445C27.3049 28.1139 26.9395 28.2653 26.5584 28.2653C26.1773 28.2653 25.8119 28.1139 25.5424 27.8445C25.273 27.575 25.1216 27.2095 25.1216 26.8285V20.3628C25.1216 19.6007 24.8188 18.8698 24.2799 18.3309C23.741 17.7919 23.0101 17.4892 22.2479 17.4892H20.8111V7.43149C20.8111 6.66936 20.5084 5.93844 19.9695 5.39953C19.4306 4.86062 18.6996 4.55786 17.9375 4.55786H9.31662C7.72176 4.55786 6.44299 5.83663 6.44299 7.43149V30.4205H20.8111V19.6444H22.9664V26.8285C22.9664 27.7811 23.3448 28.6948 24.0184 29.3684C24.6921 30.0421 25.6057 30.4205 26.5584 30.4205C27.0301 30.4205 27.4972 30.3276 27.933 30.1471C28.3688 29.9666 28.7648 29.702 29.0983 29.3684C29.4319 29.0349 29.6965 28.6389 29.877 28.2031C30.0575 27.7673 30.1504 27.3002 30.1504 26.8285V13.1787C30.1504 12.1873 29.7481 11.2822 29.1016 10.6356Z" fill="#FF0000"/>
</svg>
