<svg width="39" height="34" viewBox="0 0 39 34" fill="none" xmlns="http://www.w3.org/2000/svg">
<path d="M31.0772 0.911377C32.5818 0.911377 34.0247 1.47785 35.0887 2.48617C36.1526 3.4945 36.7503 4.86208 36.7503 6.28806C37.2134 6.28812 37.6605 6.44929 38.0066 6.74099C38.3527 7.03269 38.5739 7.43464 38.6281 7.8706L38.6413 8.08029V11.6648C38.6412 12.1037 38.4712 12.5274 38.1634 12.8555C37.8556 13.1835 37.4315 13.3931 36.9715 13.4444L36.7503 13.457V26.0026C36.7503 27.2267 36.1017 28.3092 35.1126 28.9544L34.8592 29.1067V30.4832C34.8589 31.1736 34.5783 31.8374 34.0756 32.337C33.5729 32.8367 32.8866 33.1339 32.159 33.1671C31.4314 33.2002 30.7182 32.9668 30.1672 32.5152C29.6162 32.0636 29.2697 31.4284 29.1994 30.7412L29.1861 30.4832V29.587H10.2758V30.4832C10.2755 31.1736 9.99485 31.8374 9.49215 32.337C8.98945 32.8367 8.3032 33.1339 7.57558 33.1671C6.84796 33.2002 6.13477 32.9668 5.58378 32.5152C5.03279 32.0636 4.68624 31.4284 4.61595 30.7412L4.60271 30.4832V29.1067C4.07465 28.8178 3.6281 28.4122 3.30114 27.9245C2.97417 27.4367 2.77648 26.8813 2.72492 26.3055L2.71168 26.0026V13.457C2.2485 13.4569 1.80146 13.2958 1.45533 13.0041C1.10921 12.7124 0.888077 12.3104 0.833885 11.8744L0.820648 11.6648V8.08029C0.820648 7.60497 1.01988 7.14911 1.37452 6.813C1.72916 6.47689 2.21015 6.28806 2.71168 6.28806C2.7116 4.91663 3.26448 3.59701 4.25719 2.59919C5.24991 1.60137 6.60741 1.0008 8.05196 0.920338L8.38478 0.911377H31.0772ZM32.9682 18.8337H6.49375V26.0026H32.9682V18.8337ZM12.1668 20.6259C12.6684 20.6259 13.1494 20.8147 13.504 21.1508C13.8586 21.4869 14.0579 21.9428 14.0579 22.4181C14.0579 22.8935 13.8586 23.3493 13.504 23.6854C13.1494 24.0215 12.6684 24.2104 12.1668 24.2104H10.2758C9.77428 24.2104 9.29329 24.0215 8.93865 23.6854C8.58401 23.3493 8.38478 22.8935 8.38478 22.4181C8.38478 21.9428 8.58401 21.4869 8.93865 21.1508C9.29329 20.8147 9.77428 20.6259 10.2758 20.6259H12.1668ZM29.1861 20.6259C29.6681 20.6264 30.1317 20.8013 30.4822 21.1149C30.8327 21.4285 31.0436 21.8571 31.0718 22.3131C31.1001 22.7691 30.9435 23.2181 30.6342 23.5684C30.3248 23.9187 29.886 24.1439 29.4074 24.1978L29.1861 24.2104H27.2951C26.8131 24.2099 26.3495 24.0349 25.9991 23.7213C25.6486 23.4078 25.4377 22.9792 25.4094 22.5232C25.3812 22.0671 25.5377 21.6181 25.8471 21.2678C26.1564 20.9175 26.5952 20.6924 27.0739 20.6384L27.2951 20.6259H29.1861ZM14.7803 4.49584H8.38478C7.88325 4.49584 7.40226 4.68466 7.04762 5.02077C6.69298 5.35688 6.49375 5.81274 6.49375 6.28806V15.2492H32.9682V6.28806C32.9682 5.81274 32.769 5.35688 32.4143 5.02077C32.0597 4.68466 31.5787 4.49584 31.0772 4.49584H28.4638L25.2036 10.6736C25.0974 10.8915 24.9461 11.087 24.7587 11.2484C24.5713 11.4098 24.3515 11.5339 24.1126 11.6134C23.8736 11.6928 23.6202 11.7259 23.3674 11.7107C23.1147 11.6955 22.8677 11.6324 22.6412 11.5251C22.4147 11.4177 22.2132 11.2684 22.0488 11.0858C21.8843 10.9033 21.7603 10.6913 21.6839 10.4625C21.6075 10.2336 21.5804 9.99257 21.6042 9.75361C21.628 9.51465 21.7023 9.28266 21.8225 9.0714L24.2354 4.49584H19.0086L15.7485 10.6736C15.5152 11.0836 15.1228 11.3914 14.6542 11.5318C14.1857 11.6722 13.6779 11.6343 13.2383 11.426C12.7988 11.2177 12.4621 10.8555 12.2995 10.4159C12.1369 9.97644 12.1612 9.4942 12.3673 9.0714L14.7803 4.49584Z" fill="#19AA39"/>
</svg>
